HIERARCHY
ROOT Hips
{
	OFFSET 0.000000 0.000000 0.000000
	CHANNELS 6 Xposition Yposition Zposition Yrotation Xrotation Zrotation
	JOINT Chest
	{
		OFFSET 0.000000 -0.009281 11.569106
		CHANNELS 3 Yrotation Xrotation Zrotation
		JOINT Chest2
		{
			OFFSET -0.000000 0.016865 9.269641
			CHANNELS 3 Yrotation Xrotation Zrotation
			JOINT Chest3
			{
				OFFSET -0.000000 0.000001 8.374491
				CHANNELS 3 Yrotation Xrotation Zrotation
				JOINT Chest4
				{
					OFFSET -0.000000 0.000001 8.374493
					CHANNELS 3 Yrotation Xrotation Zrotation
					JOINT Neck
					{
						OFFSET -0.000000 0.000002 12.152554
						CHANNELS 3 Yrotation Xrotation Zrotation
						JOINT Head
						{
							OFFSET -0.000000 0.040101 7.802319
							CHANNELS 3 Yrotation Xrotation Zrotation
							End Site
							{
								OFFSET -0.000000 0.020947 14.853096
							}
						}
					}
					JOINT RightCollar
					{
						OFFSET 2.894404 0.000001 6.791374
						CHANNELS 3 Yrotation Xrotation Zrotation
						JOINT RightShoulder
						{
							OFFSET 13.574684 0.000001 0.000000
							CHANNELS 3 Yrotation Xrotation Zrotation
							JOINT RightElbow
							{
								OFFSET 23.923903 0.000002 0.000000
								CHANNELS 3 Yrotation Xrotation Zrotation
								JOINT RightWrist
								{
									OFFSET 19.846718 0.012767 0.000000
									CHANNELS 3 Yrotation Xrotation Zrotation
									End Site
									{
										OFFSET 14.973145 0.000001 0.000000
									}
								}
							}
						}
					}
					JOINT LeftCollar
					{
						OFFSET -2.894404 0.000001 6.791374
						CHANNELS 3 Yrotation Xrotation Zrotation
						JOINT LeftShoulder
						{
							OFFSET -13.574684 -0.000001 0.000000
							CHANNELS 3 Yrotation Xrotation Zrotation
							JOINT LeftElbow
							{
								OFFSET -23.923903 -0.000002 0.000000
								CHANNELS 3 Yrotation Xrotation Zrotation
								JOINT LeftWrist
								{
									OFFSET -19.846718 0.012763 0.000000
									CHANNELS 3 Yrotation Xrotation Zrotation
									End Site
									{
										OFFSET -14.973145 -0.000001 0.000000
									}
								}
							}
						}
					}
				}
			}
		}
	}
	JOINT RightHip
	{
		OFFSET 9.469263 0.004643 0.045487
		CHANNELS 3 Yrotation Xrotation Zrotation
		JOINT RightKnee
		{
			OFFSET 0.000000 0.002661 -40.478676
			CHANNELS 3 Yrotation Xrotation Zrotation
			JOINT RightAnkle
			{
				OFFSET 0.000000 0.049106 -35.224068
				CHANNELS 3 Yrotation Xrotation Zrotation
				JOINT RightToe
				{
					OFFSET -0.000001 12.539529 -6.151390
					CHANNELS 3 Yrotation Xrotation Zrotation
					End Site
					{
						OFFSET -0.000001 5.044994 -1.291870
					}
				}
			}
		}
	}
	JOINT LeftHip
	{
		OFFSET -9.469263 0.004641 0.045487
		CHANNELS 3 Yrotation Xrotation Zrotation
		JOINT LeftKnee
		{
			OFFSET 0.000000 0.002661 -40.478676
			CHANNELS 3 Yrotation Xrotation Zrotation
			JOINT LeftAnkle
			{
				OFFSET 0.000000 0.049106 -35.224068
				CHANNELS 3 Yrotation Xrotation Zrotation
				JOINT LeftToe
				{
					OFFSET -0.000001 12.539529 -6.151390
					CHANNELS 3 Yrotation Xrotation Zrotation
					End Site
					{
						OFFSET -0.000001 5.044994 -1.291870
					}
				}
			}
		}
	}
}
MOTION
Frames: 16
Frame Time: 0.016667
35.915546 0.852446 82.481422 -0.842309 0.446419 -93.592211 -1.911109 -1.794405 0.216938 -0.738708 -0.737003 0.108668 -0.738708 -0.737003 0.108668 -0.553893 -0.552885 0.080609 4.409399 -18.423325 -8.495827 5.315711 2.006791 -14.156445 8.837713 -0.080535 -2.657992 47.028031 -17.407454 -7.057220 19.805529 -36.047532 40.882213 -24.995846 38.070617 68.440531 -8.268172 3.982848 -4.287908 -44.390147 -3.436728 14.417148 -31.882958 -54.398700 -21.766898 12.947627 9.725631 -54.186735 -0.151592 12.142934 -16.959242 6.767217 -14.386552 -17.193275 -2.444610 0.816751 14.498415 -0.064868 1.432414 0.064812 -1.837198 -8.265115 -9.200479 1.462522 -19.113118 8.298839 3.905865 -7.973813 3.122594 -9.445127 33.570250 -2.868158 
35.369995 1.156653 82.558617 -0.657668 0.327741 -93.594103 -1.814753 -1.787374 0.203488 -0.715166 -0.751012 0.109481 -0.715166 -0.751012 0.109481 -0.536231 -0.563388 0.081231 4.438280 -18.385245 -8.490430 5.367372 2.079708 -14.137625 8.831499 -0.091216 -2.624586 47.023831 -17.297123 -7.122295 19.706911 -36.089388 41.043918 -24.945745 38.076536 68.501251 -8.313294 4.003467 -4.269740 -44.326603 -3.498280 14.298341 -31.820315 -54.532039 -21.794975 12.930508 9.690407 -54.209538 -0.193280 12.719344 -16.633930 6.574676 -14.134972 -17.324637 -2.152429 -0.619924 14.617054 -0.332101 1.695808 0.085116 -1.909733 -8.144026 -8.955700 1.203947 -18.343419 8.383123 4.775917 -8.063330 3.232646 -9.797576 32.954860 -2.910297 
34.783005 1.620201 82.923965 -0.509725 0.750912 -93.676386 -2.263884 -1.819051 0.211501 -0.685550 -0.770134 0.112479 -0.685550 -0.770135 0.112479 -0.514013 -0.577730 0.083494 4.463792 -18.350944 -8.476193 5.416049 2.145632 -14.103588 8.794843 -0.165765 -2.567646 46.980210 -17.225478 -7.081785 19.581714 -36.135362 41.269219 -24.888115 38.098344 68.567579 -8.342959 4.023439 -4.215814 -44.336093 -3.626591 14.153177 -31.862733 -54.564626 -21.717891 12.896797 9.711208 -54.222198 -0.840378 13.326111 -16.117594 6.285322 -13.725241 -17.592829 -1.660041 -2.663514 14.764731 -0.673386 2.210036 0.147371 -2.483474 -8.029446 -8.508187 0.816410 -17.500251 8.593186 5.692641 -7.652751 3.216877 -10.016884 31.821192 -2.811057 
34.123867 2.079706 83.296219 -0.377137 1.004809 -93.805743 -2.556970 -1.906535 0.204523 -0.649671 -0.793615 0.123165 -0.649671 -0.793615 0.123164 -0.487086 -0.595343 0.091529 4.494423 -18.318803 -8.455854 5.476292 2.208131 -14.056561 8.737432 -0.216331 -2.525191 46.868908 -17.252756 -7.025769 19.437322 -36.188244 41.612292 -24.850918 38.092136 68.591703 -8.330106 4.002813 -4.209902 -44.446281 -3.712971 14.048161 -31.913666 -54.513707 -21.635847 12.891548 9.713340 -54.218772 -1.387218 14.064187 -15.530791 6.044560 -13.550648 -18.040929 -0.989557 -4.797477 15.084604 -1.106365 2.740888 0.206263 -2.817180 -7.981708 -7.890186 0.252707 -16.455118 8.957394 6.675061 -7.417725 3.136420 -10.235400 30.746711 -2.759702 
33.467934 2.552299 83.595528 -0.267992 0.967777 -94.095145 -2.586778 -2.069494 0.301668 -0.604707 -0.821169 0.135350 -0.604707 -0.821169 0.135350 -0.453341 -0.616012 0.100699 4.527906 -18.275682 -8.423364 5.544921 2.291488 -13.986394 8.665194 -0.242666 -2.476591 46.669795 -17.262791 -6.967177 19.349494 -36.288163 42.019508 -24.854449 38.020863 68.559123 -8.278911 3.986593 -4.223250 -44.624180 -3.738790 14.010787 -31.899316 -54.448588 -21.641553 12.939182 9.635194 -54.138910 -1.630034 14.821389 -14.943380 5.787401 -13.473376 -18.500247 -0.136058 -6.914271 15.432635 -1.598027 3.143020 0.269760 -2.809341 -7.990959 -6.959900 -0.307991 -15.218203 9.334326 7.477432 -7.377110 3.104944 -10.396355 29.705268 -2.782176 
32.735081 2.979520 83.836098 -0.085695 0.792092 -94.387614 -2.497738 -2.208702 0.362532 -0.554036 -0.850966 0.143150 -0.554036 -0.850966 0.143150 -0.415319 -0.638355 0.106589 4.567872 -18.210333 -8.381783 5.626797 2.416696 -13.897611 8.588923 -0.201944 -2.451536 46.408472 -17.229511 -6.943921 19.374892 -36.455882 42.448779 -24.894433 37.897339 68.471041 -8.195992 3.959478 -4.228441 -44.801434 -3.683215 13.990208 -31.838954 -54.443691 -21.709956 13.014972 9.482663 -53.970058 -1.707001 15.686663 -14.626283 5.475317 -13.420904 -18.783567 0.797144 -9.050887 15.860372 -2.093284 3.419999 0.320391 -2.789398 -7.836182 -5.896991 -0.625648 -14.242974 9.564283 8.037072 -7.173835 3.038906 -10.389173 28.653204 -2.748895 
31.969547 3.430267 84.013107 0.172821 0.640909 -94.638869 -2.466560 -2.309615 0.370570 -0.498550 -0.880494 0.148490 -0.498550 -0.880494 0.148489 -0.373692 -0.660493 0.110646 4.624538 -18.116614 -8.342742 5.736507 2.595497 -13.808196 8.526358 -0.105047 -2.468831 46.164866 -17.161294 -7.000747 19.480463 -36.634836 42.899640 -24.933281 37.752720 68.354928 -8.088179 3.895816 -4.268951 -44.919316 -3.535048 13.942522 -31.850617 -54.513813 -21.723704 13.114007 9.309100 -53.727357 -1.814466 16.643260 -14.493098 5.139224 -13.375518 -18.868256 1.801573 -11.080553 16.147211 -2.508163 3.524951 0.360719 -2.807568 -7.728640 -4.934532 -0.726106 -12.965713 9.346607 8.299171 -6.971920 3.198782 -10.147281 27.379886 -2.575925 
31.171598 3.864570 84.127541 0.488973 0.420451 -94.869367 -2.396685 -2.393908 0.377371 -0.441031 -0.909841 0.156701 -0.441031 -0.909841 0.156700 -0.330533 -0.682494 0.116867 4.699550 -17.990421 -8.320811 5.872090 2.835205 -13.744352 8.490864 0.041561 -2.512511 46.011819 -17.073718 -7.194634 19.593333 -36.760734 43.368132 -24.950493 37.623882 68.242210 -7.970891 3.846254 -4.341873 -44.982536 -3.450034 13.838130 -31.970743 -54.571794 -21.635698 13.194547 9.165848 -53.490558 -1.833102 17.648379 -14.307603 4.818640 -13.361047 -18.717474 2.827629 -12.781094 16.282010 -2.745692 3.375228 0.390284 -2.766215 -7.557265 -4.227946 -0.816940 -11.780503 8.767383 8.402987 -6.614387 3.754146 -9.759471 25.975879 -2.373809 
30.384666 4.313107 84.196503 0.818477 0.108801 -95.092189 -2.231718 -2.455222 0.399210 -0.385472 -0.939051 0.165519 -0.385472 -0.939051 0.165519 -0.288843 -0.704393 0.123543 4.776138 -17.850172 -8.312515 6.005297 3.100588 -13.705000 8.451678 0.145436 -2.562618 45.971466 -16.961627 -7.467525 19.699529 -36.806807 43.810616 -24.957839 37.516423 68.152918 -7.880951 3.774842 -4.418594 -45.016032 -3.515435 13.681971 -32.105963 -54.552834 -21.542686 13.232854 9.100985 -53.303247 -1.698484 18.751113 -13.821590 4.559038 -13.532680 -18.550637 3.853737 -13.902812 16.284004 -2.796763 2.900728 0.369121 -2.604248 -7.304256 -3.819222 -0.976708 -10.814967 8.430034 8.301500 -5.993220 4.308939 -9.164137 24.470508 -2.134713 
29.655445 4.848201 84.244759 1.127503 -0.311139 -95.270914 -1.930978 -2.484341 0.393111 -0.334104 -0.973802 0.166107 -0.334105 -0.973803 0.166106 -0.250308 -0.730442 0.124043 4.834259 -17.712205 -8.303544 6.105183 3.360366 -13.670421 8.435241 0.180520 -2.539487 45.978914 -16.782408 -7.772133 19.803302 -36.801240 44.179986 -24.964055 37.429812 68.098851 -7.859219 3.741349 -4.465334 -45.020157 -3.733034 13.578024 -32.149366 -54.478480 -21.547990 13.222052 9.093568 -53.174478 -1.331032 19.928865 -13.043882 4.245305 -14.024633 -18.726461 4.775725 -14.262095 16.943679 -2.637638 2.059443 0.247608 -2.397726 -7.106999 -3.601885 -1.117109 -9.895797 8.457795 8.061201 -5.215780 4.524684 -8.323255 22.949033 -1.840554 
28.984224 5.470334 84.267899 1.397997 -0.731688 -95.430925 -1.591080 -2.494158 0.389990 -0.296231 -1.011015 0.160096 -0.296231 -1.011017 0.160095 -0.221903 -0.758340 0.119578 4.876247 -17.578455 -8.294369 6.175948 3.611177 -13.640759 8.452123 0.231262 -2.503964 46.000542 -16.597223 -8.078755 19.872997 -36.793430 44.479852 -24.957479 37.356193 68.076434 -7.842656 3.666233 -4.510633 -45.051528 -3.885649 13.503664 -32.091927 -54.425854 -21.623720 13.208876 9.132114 -53.140060 -0.935286 20.924308 -12.171559 3.683196 -14.607106 -18.865703 5.957199 -13.887565 18.018136 -2.322360 0.858570 0.073951 -2.233906 -7.010397 -3.420584 -1.247290 -8.951434 8.381202 7.703088 -4.313860 4.776898 -7.300299 21.351175 -1.511180 
28.376333 6.146870 84.251816 1.623190 -1.100999 -95.568055 -1.262066 -2.499245 0.387665 -0.275267 -1.047402 0.153237 -0.275268 -1.047402 0.153238 -0.206182 -0.785621 0.114452 4.903305 -17.454636 -8.286791 6.219536 3.842489 -13.618956 8.494509 0.318612 -2.513191 46.034966 -16.446091 -8.330053 19.862789 -36.795486 44.720800 -24.947920 37.306001 68.088640 -7.798509 3.523566 -4.582678 -45.130448 -3.854869 13.409470 -32.043669 -54.392338 -21.634009 13.230477 9.190600 -53.229710 -0.606737 21.536783 -11.311250 2.941664 -14.777367 -18.547737 7.329362 -13.133163 19.156297 -1.850835 -0.528415 -0.095902 -2.192979 -7.051831 -3.181244 -1.290349 -7.919880 8.002974 7.331419 -3.372246 5.132620 -6.237293 19.703653 -1.194142 
27.855419 6.838678 84.191612 1.757029 -1.503410 -95.626460 -0.870116 -2.535537 0.311446 -0.254445 -1.066701 0.141195 -0.254445 -1.066702 0.141195 -0.190582 -0.800086 0.105449 4.899621 -17.372854 -8.275357 6.210844 3.993920 -13.600093 8.561340 0.383421 -2.450184 46.046506 -16.279365 -8.549882 19.774694 -36.840230 44.891183 -24.927607 37.307791 68.138780 -7.808470 3.446765 -4.613375 -45.233935 -3.815803 13.397475 -31.976200 -54.351924 -21.584477 13.231834 9.247055 -53.386616 -0.228693 21.635444 -10.498552 1.987802 -14.204828 -17.917326 8.681344 -12.046711 20.447828 -1.098807 -2.139443 -0.244192 -2.191213 -7.245770 -3.039758 -1.266205 -6.888945 7.612534 7.013589 -2.401150 5.545522 -5.250340 18.068507 -0.917693 
27.368044 7.555169 84.090759 1.936552 -1.775365 -95.750045 -0.594161 -2.479450 0.298069 -0.234104 -1.075900 0.133185 -0.234104 -1.075900 0.133184 -0.175338 -0.806978 0.099473 4.885742 -17.311459 -8.267947 6.183450 4.106796 -13.591965 8.646504 0.533035 -2.375008 46.037128 -16.208696 -8.722684 19.630022 -36.945893 44.997932 -24.876801 37.387933 68.246970 -7.857716 3.531288 -4.599542 -45.342767 -3.856596 13.457696 -31.908878 -54.316711 -21.471350 13.228458 9.295255 -53.563771 0.030834 21.546001 -9.581292 0.917095 -13.066931 -16.741723 9.923677 -10.997560 20.815527 -0.162983 -3.422970 -0.454860 -2.404723 -7.313744 -2.955423 -1.193814 -6.048290 7.431293 6.806010 -1.275398 5.935175 -4.385441 16.401369 -0.686316 
26.883410 8.262100 83.955147 2.116748 -2.017029 -95.925745 -0.352180 -2.371276 0.344907 -0.212847 -1.084016 0.130434 -0.212846 -1.084017 0.130433 -0.159399 -0.813059 0.097445 4.877489 -17.268571 -8.271141 6.164113 4.185564 -13.601266 8.727330 0.763653 -2.343258 46.013014 -16.329198 -8.832280 19.453227 -37.066054 45.070673 -24.809977 37.552356 68.392228 -7.942911 3.647517 -4.612003 -45.421489 -3.875455 13.537490 -31.829839 -54.317851 -21.347480 13.192467 9.351800 -53.702642 0.167687 21.438210 -8.594070 0.064623 -11.862664 -15.356999 10.624557 -10.015830 20.085664 0.883515 -4.117020 -0.628438 -2.709802 -7.251266 -2.975717 -1.060490 -5.483805 7.440408 6.690274 0.030234 6.310195 -3.649841 14.695024 -0.500799 
26.390856 8.924741 83.795921 2.268569 -2.252792 -96.130931 -0.120411 -2.258631 0.429305 -0.195703 -1.097809 0.136158 -0.195703 -1.097809 0.136158 -0.146528 -0.823400 0.101763 4.882018 -17.220481 -8.286655 6.163764 4.274539 -13.628988 8.774619 0.876860 -2.316128 45.989388 -16.474063 -8.818905 19.303339 -37.129520 45.118447 -24.761425 37.731642 68.535552 -8.009287 3.707021 -4.621712 -45.485348 -3.865783 13.532041 -31.775297 -54.322680 -21.224560 13.163945 9.411899 -53.832061 0.145871 21.451244 -7.684840 -0.523999 -11.060530 -14.661401 10.485733 -8.984385 19.179405 2.068488 -4.363241 -0.812506 -2.970395 -7.119208 -3.085402 -0.993399 -5.085162 7.519091 6.634485 1.341051 6.691340 -2.973300 13.051273 -0.343425 
